<svg xmlns="http://www.w3.org/2000/svg" xmlns:xlink="http://www.w3.org/1999/xlink" width="45" zoomAndPan="magnify" viewBox="0 0 33.75 33.749998" height="45" preserveAspectRatio="xMidYMid meet" version="1.0"><defs><clipPath id="8dafdf6b0f"><path d="M 6 0 L 27.578125 0 L 27.578125 27 L 6 27 Z M 6 0 " clip-rule="nonzero"/></clipPath><clipPath id="2f8cb7958b"><path d="M 11 27 L 22 27 L 22 33.5 L 11 33.5 Z M 11 27 " clip-rule="nonzero"/></clipPath><clipPath id="a4253b3d29"><path d="M 15 32 L 17 32 L 17 33.5 L 15 33.5 Z M 15 32 " clip-rule="nonzero"/></clipPath></defs><path fill="#ffffff" d="M 18.042969 26.039062 L 16.660156 26.039062 L 16.660156 25.503906 L 17.507812 25.503906 L 17.507812 21.359375 L 21.480469 17.386719 L 21.480469 10.035156 L 16.417969 4.972656 L 16.417969 0.265625 L 16.949219 0.265625 L 16.949219 4.753906 L 22.011719 9.816406 L 22.011719 17.609375 L 18.042969 21.582031 L 18.042969 26.039062 " fill-opacity="1" fill-rule="nonzero"/><path fill="#ffffff" d="M 16.304688 26.039062 L 14.640625 26.039062 L 14.640625 25.503906 L 15.769531 25.503906 L 15.769531 19.773438 L 13.21875 17.21875 L 13.21875 12.058594 L 15.785156 9.492188 L 19.128906 12.835938 L 19.128906 16.601562 L 18.597656 16.601562 L 18.597656 13.058594 L 15.785156 10.246094 L 13.75 12.277344 L 13.75 17 L 16.304688 19.554688 L 16.304688 26.039062 " fill-opacity="1" fill-rule="nonzero"/><g clip-path="url(#8dafdf6b0f)"><path fill="#ffffff" d="M 22.488281 26.039062 L 18.761719 26.039062 L 18.761719 23.511719 L 20.574219 21.699219 L 20.953125 22.074219 L 19.292969 23.734375 L 19.292969 25.503906 L 21.953125 25.503906 C 21.96875 22.398438 22.992188 19.410156 24.910156 16.863281 C 26.253906 15.085938 26.960938 12.964844 26.960938 10.730469 C 26.960938 5.109375 22.386719 0.535156 16.765625 0.535156 C 11.207031 0.535156 6.632812 5.054688 6.566406 10.613281 C 6.542969 12.902344 7.257812 15.078125 8.640625 16.894531 C 10.519531 19.367188 11.558594 22.421875 11.574219 25.503906 L 13.0625 25.503906 L 13.0625 20.617188 L 11.183594 18.648438 L 11.183594 14.707031 L 9.125 12.472656 L 9.125 6.507812 L 9.660156 6.507812 L 9.660156 12.265625 L 11.714844 14.5 L 11.714844 18.433594 L 13.597656 20.402344 L 13.597656 26.039062 L 11.042969 26.039062 L 11.042969 25.574219 C 11.042969 22.582031 10.039062 19.613281 8.214844 17.21875 C 6.761719 15.304688 6.007812 13.019531 6.035156 10.605469 C 6.066406 7.753906 7.195312 5.085938 9.214844 3.09375 C 11.230469 1.097656 13.914062 0 16.765625 0 C 22.679688 0 27.496094 4.8125 27.496094 10.730469 C 27.496094 13.082031 26.75 15.3125 25.335938 17.183594 C 23.472656 19.65625 22.488281 22.558594 22.488281 25.574219 L 22.488281 26.039062 " fill-opacity="1" fill-rule="nonzero"/></g><path fill="#ffffff" d="M 11.894531 11.566406 L 11.359375 11.566406 L 11.359375 7.804688 L 13.53125 5.636719 L 13.53125 2.695312 L 14.0625 2.695312 L 14.0625 5.855469 L 11.894531 8.027344 L 11.894531 11.566406 " fill-opacity="1" fill-rule="nonzero"/><path fill="#ffffff" d="M 25.242188 13.820312 L 24.707031 13.820312 L 24.707031 9.949219 L 20.84375 6.085938 L 20.84375 2.949219 L 21.375 2.949219 L 21.375 5.863281 L 25.242188 9.730469 L 25.242188 13.820312 " fill-opacity="1" fill-rule="nonzero"/><path fill="#ffffff" d="M 19.554688 16.664062 C 19.554688 17.042969 19.246094 17.355469 18.863281 17.355469 C 18.480469 17.355469 18.171875 17.042969 18.171875 16.664062 C 18.171875 16.28125 18.480469 15.972656 18.863281 15.972656 C 19.246094 15.972656 19.554688 16.28125 19.554688 16.664062 " fill-opacity="1" fill-rule="nonzero"/><path fill="#ffffff" d="M 16.660156 19.789062 C 16.660156 20.167969 16.351562 20.480469 15.96875 20.480469 C 15.589844 20.480469 15.277344 20.167969 15.277344 19.789062 C 15.277344 19.40625 15.589844 19.097656 15.96875 19.097656 C 16.351562 19.097656 16.660156 19.40625 16.660156 19.789062 " fill-opacity="1" fill-rule="nonzero"/><path fill="#ffffff" d="M 16.46875 10.179688 C 16.46875 10.558594 16.160156 10.871094 15.777344 10.871094 C 15.394531 10.871094 15.085938 10.558594 15.085938 10.179688 C 15.085938 9.796875 15.394531 9.488281 15.777344 9.488281 C 16.160156 9.488281 16.46875 9.796875 16.46875 10.179688 " fill-opacity="1" fill-rule="nonzero"/><path fill="#ffffff" d="M 14.007812 20.644531 C 14.007812 21.027344 13.695312 21.335938 13.316406 21.335938 C 12.933594 21.335938 12.621094 21.027344 12.621094 20.644531 C 12.621094 20.265625 12.933594 19.953125 13.316406 19.953125 C 13.695312 19.953125 14.007812 20.265625 14.007812 20.644531 " fill-opacity="1" fill-rule="nonzero"/><path fill="#ffffff" d="M 25.667969 13.929688 C 25.667969 14.3125 25.355469 14.621094 24.976562 14.621094 C 24.59375 14.621094 24.285156 14.3125 24.285156 13.929688 C 24.285156 13.546875 24.59375 13.238281 24.976562 13.238281 C 25.355469 13.238281 25.667969 13.546875 25.667969 13.929688 " fill-opacity="1" fill-rule="nonzero"/><path fill="#ffffff" d="M 22.347656 9.867188 C 22.347656 10.25 22.039062 10.558594 21.65625 10.558594 C 21.273438 10.558594 20.964844 10.25 20.964844 9.867188 C 20.964844 9.488281 21.273438 9.175781 21.65625 9.175781 C 22.039062 9.175781 22.347656 9.488281 22.347656 9.867188 " fill-opacity="1" fill-rule="nonzero"/><path fill="#ffffff" d="M 22.347656 17.382812 C 22.347656 17.765625 22.039062 18.074219 21.65625 18.074219 C 21.273438 18.074219 20.964844 17.765625 20.964844 17.382812 C 20.964844 17 21.273438 16.691406 21.65625 16.691406 C 22.039062 16.691406 22.347656 17 22.347656 17.382812 " fill-opacity="1" fill-rule="nonzero"/><path fill="#ffffff" d="M 17.351562 4.792969 C 17.351562 5.171875 17.042969 5.484375 16.660156 5.484375 C 16.28125 5.484375 15.96875 5.171875 15.96875 4.792969 C 15.96875 4.410156 16.28125 4.101562 16.660156 4.101562 C 17.042969 4.101562 17.351562 4.410156 17.351562 4.792969 " fill-opacity="1" fill-rule="nonzero"/><path fill="#ffffff" d="M 21.800781 3.148438 C 21.800781 3.527344 21.492188 3.839844 21.109375 3.839844 C 20.726562 3.839844 20.417969 3.527344 20.417969 3.148438 C 20.417969 2.765625 20.726562 2.457031 21.109375 2.457031 C 21.492188 2.457031 21.800781 2.765625 21.800781 3.148438 " fill-opacity="1" fill-rule="nonzero"/><path fill="#ffffff" d="M 21.453125 21.851562 C 21.453125 22.234375 21.144531 22.542969 20.761719 22.542969 C 20.382812 22.542969 20.070312 22.234375 20.070312 21.851562 C 20.070312 21.46875 20.382812 21.160156 20.761719 21.160156 C 21.144531 21.160156 21.453125 21.46875 21.453125 21.851562 " fill-opacity="1" fill-rule="nonzero"/><path fill="#ffffff" d="M 18.605469 21.335938 C 18.605469 21.71875 18.296875 22.03125 17.914062 22.03125 C 17.535156 22.03125 17.222656 21.71875 17.222656 21.335938 C 17.222656 20.957031 17.535156 20.644531 17.914062 20.644531 C 18.296875 20.644531 18.605469 20.957031 18.605469 21.335938 " fill-opacity="1" fill-rule="nonzero"/><path fill="#ffffff" d="M 10.09375 6.519531 C 10.09375 6.902344 9.78125 7.210938 9.402344 7.210938 C 9.019531 7.210938 8.710938 6.902344 8.710938 6.519531 C 8.710938 6.140625 9.019531 5.828125 9.402344 5.828125 C 9.78125 5.828125 10.09375 6.140625 10.09375 6.519531 " fill-opacity="1" fill-rule="nonzero"/><path fill="#ffffff" d="M 12.425781 11.566406 C 12.425781 11.945312 12.117188 12.257812 11.734375 12.257812 C 11.355469 12.257812 11.042969 11.945312 11.042969 11.566406 C 11.042969 11.183594 11.355469 10.875 11.734375 10.875 C 12.117188 10.875 12.425781 11.183594 12.425781 11.566406 " fill-opacity="1" fill-rule="nonzero"/><path fill="#ffffff" d="M 14.488281 2.695312 C 14.488281 3.078125 14.179688 3.386719 13.796875 3.386719 C 13.414062 3.386719 13.105469 3.078125 13.105469 2.695312 C 13.105469 2.3125 13.414062 2.003906 13.796875 2.003906 C 14.179688 2.003906 14.488281 2.3125 14.488281 2.695312 " fill-opacity="1" fill-rule="nonzero"/><g clip-path="url(#2f8cb7958b)"><path fill="#ffffff" d="M 18.183594 33.09375 L 15.96875 33.09375 L 15.96875 32.558594 L 17.648438 32.558594 L 17.648438 31.425781 L 13.910156 31.425781 L 13.910156 29.171875 L 20.933594 29.171875 L 20.933594 27.71875 L 11.734375 27.71875 L 11.734375 27.1875 L 21.464844 27.1875 L 21.464844 29.707031 L 14.441406 29.707031 L 14.441406 30.890625 L 18.183594 30.890625 L 18.183594 33.09375 " fill-opacity="1" fill-rule="nonzero"/></g><path fill="#ffffff" d="M 12.621094 27.453125 C 12.621094 27.835938 12.3125 28.144531 11.929688 28.144531 C 11.550781 28.144531 11.238281 27.835938 11.238281 27.453125 C 11.238281 27.070312 11.550781 26.761719 11.929688 26.761719 C 12.3125 26.761719 12.621094 27.070312 12.621094 27.453125 " fill-opacity="1" fill-rule="nonzero"/><g clip-path="url(#a4253b3d29)"><path fill="#ffffff" d="M 16.660156 32.808594 C 16.660156 33.191406 16.351562 33.5 15.96875 33.5 C 15.589844 33.5 15.277344 33.191406 15.277344 32.808594 C 15.277344 32.429688 15.589844 32.117188 15.96875 32.117188 C 16.351562 32.117188 16.660156 32.429688 16.660156 32.808594 " fill-opacity="1" fill-rule="nonzero"/></g></svg>